<?xml version="1.0" standalone="no"?><!DOCTYPE svg PUBLIC "-//W3C//DTD SVG 1.1//EN" "http://www.w3.org/Graphics/SVG/1.1/DTD/svg11.dtd"><svg t="1556431795434" class="icon" style="" viewBox="0 0 1025 1024" version="1.1" xmlns="http://www.w3.org/2000/svg" p-id="5942" xmlns:xlink="http://www.w3.org/1999/xlink" width="200.1953125" height="200"><defs><style type="text/css"></style></defs><path d="M511.88141795 116.4921875C293.54424539 116.4921875 116.51410574 278.91031573 116.51410574 478.98247404a340.01026903 340.01026903 0 0 0 73.90305802 210.46916646L119.04310783 861.70477655a33.15802626 33.15802626 0 0 0 17.70301389 43.27403385 34.28202702 34.28202702 0 0 0 25.2900194 0L372.2243078 818.99274228a430.77333998 430.77333998 0 0 0 140.50011111 23.60401904c218.61817237 0 395.64831278-162.41812823 395.64831201-362.49028653S730.49959032 116.4921875 511.88141795 116.4921875z m0 658.94552035a362.77128633 362.77128633 0 0 1-118.02009362-19.95101539L369.41430512 747.33768579l-159.04612518 66.31605251 56.20004414-134.31810617L242.40220467 650.39260912a273.97521632 273.97521632 0 0 1-59.853047-168.60013319c0-163.54212899 147.80611681-296.45523458 329.33226028-296.45523382S841.49467803 315.44034504 841.49467803 478.98247404s-147.80611681 296.45523458-329.61326008 296.45523381z" p-id="5943" fill="#bfbfbf"></path><path d="M511.88141795 478.98247404m-49.45603881 0a49.45603881 49.45603881 0 1 0 98.91207762 0 49.45603881 49.45603881 0 1 0-98.91207762 0Z" p-id="5944" fill="#bfbfbf"></path><path d="M347.21528743 478.98247404m-49.45603881 0a49.45603881 49.45603881 0 1 0 98.91207839 0 49.45603881 49.45603881 0 1 0-98.91207839 0Z" p-id="5945" fill="#bfbfbf"></path><path d="M676.82854828 478.98247404m-49.45603881 0a49.45603881 49.45603881 0 1 0 98.91207762 0 49.45603881 49.45603881 0 1 0-98.91207762 0Z" p-id="5946" fill="#bfbfbf"></path></svg>