<?xml version="1.0" standalone="no"?><!DOCTYPE svg PUBLIC "-//W3C//DTD SVG 1.1//EN" "http://www.w3.org/Graphics/SVG/1.1/DTD/svg11.dtd"><svg t="1556431689066" class="icon" style="" viewBox="0 0 1024 1024" version="1.1" xmlns="http://www.w3.org/2000/svg" p-id="3409" xmlns:xlink="http://www.w3.org/1999/xlink" width="200" height="200"><defs><style type="text/css"></style></defs><path d="M512 0C229.25 0 0 229.25 0 512c0 282.75 229.25 512 512 512 282.75 0 512-229.25 512-512C1024 229.25 794.75 0 512 0z m291.375 803.375c-37.875 37.875-82 67.625-131 88.375-50.75 21.5-104.625 32.375-160.375 32.375-55.625 0-109.625-10.875-160.375-32.375-49-20.75-93.125-50.5-131-88.375-37.875-37.875-67.625-82-88.375-131C110.875 621.625 100 567.625 100 512c0-55.625 10.875-109.625 32.375-160.375 20.75-49 50.5-93.125 88.375-131s82-67.625 131-88.375C402.375 110.875 456.375 100 512 100c55.625 0 109.625 10.875 160.375 32.375 49 20.75 93.125 50.5 131 88.375 37.875 37.875 67.625 82 88.375 131 21.5 50.75 32.375 104.625 32.375 160.375 0 55.625-10.875 109.625-32.375 160.375-20.875 48.875-50.5 93-88.375 130.875z" p-id="3410" fill="#bfbfbf"></path><path d="M448 192h128V320H448zM428.125 832l19.875-448h128l26.875 448z" p-id="3411" fill="#bfbfbf"></path></svg>