<?xml version="1.0" standalone="no"?><!DOCTYPE svg PUBLIC "-//W3C//DTD SVG 1.1//EN" "http://www.w3.org/Graphics/SVG/1.1/DTD/svg11.dtd"><svg t="1556431726560" class="icon" style="" viewBox="0 0 1213 1024" version="1.1" xmlns="http://www.w3.org/2000/svg" p-id="4324" xmlns:xlink="http://www.w3.org/1999/xlink" width="236.9140625" height="200"><defs><style type="text/css"></style></defs><path d="M1134.2222225 245.33333375a35.6622225 35.6622225 0 0 1-35.55555562-35.55555562 106.66666688 106.66666688 0 0 0-106.66666688-106.66666688H209.77777812a106.66666688 106.66666688 0 0 0-106.66666687 106.66666687 35.55555562 35.55555562 0 0 1-71.11111125 0A178.06222219 178.06222219 0 0 1 209.77777812 32h782.22222188a178.06222219 178.06222219 0 0 1 177.77777812 177.77777812 35.6622225 35.6622225 0 0 1-35.55555562 35.55555563z m-924.44444437 0h462.22222218a35.41333313 35.41333313 0 0 1 23.64444375 9.06666656L845.51111094 387.55555531H1134.2222225a35.6622225 35.6622225 0 0 1 35.55555562 35.55555563v391.11111093a178.06222219 178.06222219 0 0 1-177.77777812 177.77777813H209.77777812A178.06222219 178.06222219 0 0 1 32 814.22222188V423.11111094a178.06222219 178.06222219 0 0 1 177.77777812-177.77777719zM103.11111125 814.22222188a106.66666688 106.66666688 0 0 0 106.66666688 106.66666687h782.22222187a106.66666688 106.66666688 0 0 0 106.66666688-106.66666688V458.66666656H831.99999969a35.41333313 35.41333313 0 0 1-23.64444375-9.06666656L658.48888906 316.44444406H209.77777812a106.66666688 106.66666688 0 0 0-106.66666687 106.66666688v391.11111093z m213.33333281-426.66666657h213.33333375a35.55555562 35.55555562 0 0 1 0 71.11111125H316.44444406a35.55555562 35.55555562 0 0 1 0-71.11111125z" p-id="4325" fill="#bfbfbf"></path></svg>